HIERARCHY
ROOT root
{
	OFFSET 0.000000 0.000000 0.000000
	CHANNELS 6 Xposition Yposition Zposition Zrotation Yrotation Xrotation
	JOINT lhip
	{
		OFFSET 0.058581 -0.082280 -0.017664
		CHANNELS 3 Zrotation Yrotation Xrotation
		JOINT lknee
		{
			OFFSET 0.043451 -0.386469 0.008037
			CHANNELS 3 Zrotation Yrotation Xrotation
			JOINT lankle
			{
				OFFSET -0.014790 -0.426874 -0.037428
				CHANNELS 3 Zrotation Yrotation Xrotation
				JOINT ltoe
				{
					OFFSET 0.041054 -0.060286 0.122042
					CHANNELS 3 Zrotation Yrotation Xrotation
					End Site
					{
						OFFSET 0.000000 0.000000 0.000000
					}
				}
			}
		}
	}
	JOINT rhip
	{
		OFFSET -0.060310 -0.090513 -0.013543
		CHANNELS 3 Zrotation Yrotation Xrotation
		JOINT rknee
		{
			OFFSET -0.043257 -0.383688 -0.004843
			CHANNELS 3 Zrotation Yrotation Xrotation
			JOINT rankle
			{
				OFFSET 0.019056 -0.420046 -0.034562
				CHANNELS 3 Zrotation Yrotation Xrotation
				JOINT rtoe
				{
					OFFSET -0.034840 -0.062106 0.130323
					CHANNELS 3 Zrotation Yrotation Xrotation
					End Site
					{
						OFFSET 0.000000 0.000000 0.000000
					}
				}
			}
		}
	}
	JOINT lowerback
	{
		OFFSET 0.004439 0.124404 -0.038385
		CHANNELS 3 Zrotation Yrotation Xrotation
		JOINT upperback
		{
			OFFSET 0.004488 0.137956 0.026820
			CHANNELS 3 Zrotation Yrotation Xrotation
			JOINT chest
			{
				OFFSET -0.002265 0.056032 0.002855
				CHANNELS 3 Zrotation Yrotation Xrotation
				JOINT lowerneck
				{
					OFFSET -0.013390 0.211636 -0.033468
					CHANNELS 3 Zrotation Yrotation Xrotation
					JOINT upperneck
					{
						OFFSET 0.010113 0.088937 0.050410
						CHANNELS 3 Zrotation Yrotation Xrotation
						End Site
						{
							OFFSET 0.000000 0.000000 0.000000
						}
					}
				}
				JOINT lclavicle
				{
					OFFSET 0.071702 0.114000 -0.018898
					CHANNELS 3 Zrotation Yrotation Xrotation
					JOINT lshoulder
					{
						OFFSET 0.122921 0.045205 -0.019046
						CHANNELS 3 Zrotation Yrotation Xrotation
						JOINT lelbow
						{
							OFFSET 0.255332 -0.015649 -0.022946
							CHANNELS 3 Zrotation Yrotation Xrotation
							JOINT lwrist
							{
								OFFSET 0.265709 0.012698 -0.007375
								CHANNELS 3 Zrotation Yrotation Xrotation
								End Site
								{
									OFFSET 0.000000 0.000000 0.000000
								}
							}
						}
					}
				}
				JOINT rclavicle
				{
					OFFSET -0.082954 0.112472 -0.023707
					CHANNELS 3 Zrotation Yrotation Xrotation
					JOINT rshoulder
					{
						OFFSET -0.113228 0.046853 -0.008472
						CHANNELS 3 Zrotation Yrotation Xrotation
						JOINT relbow
						{
							OFFSET -0.260127 -0.014369 -0.031269
							CHANNELS 3 Zrotation Yrotation Xrotation
							JOINT rwrist
							{
								OFFSET -0.269108 0.006794 -0.006027
								CHANNELS 3 Zrotation Yrotation Xrotation
								End Site
								{
									OFFSET 0.000000 0.000000 0.000000
								}
							}
						}
					}
				}
			}
		}
	}
}
MOTION
Frames: 7
Frame Time: 0.033333
-0.282139 -1.991425 1.041837 -177.295422 1.650052 98.405742 2.627874 1.871717 -9.655102 -3.910790 0.946518 0.476383 2.777119 9.863060 -11.120451 0.000000 -0.000000 0.000000 1.460200 0.040826 -17.123083 0.266216 -4.377799 11.862720 0.637428 -7.861380 -14.298152 0.000000 -0.000000 0.000000 1.266941 -0.799640 14.981891 0.614235 -1.776092 1.817804 0.681106 -2.032155 2.269194 1.926870 2.608533 -3.184998 3.299484 -0.768697 4.923771 -29.386583 -0.670152 4.940721 -56.223597 -5.982361 11.044783 11.661963 -30.497427 -3.477870 3.408338 -5.074494 -13.199639 26.439093 3.941445 5.491431 54.071088 3.549428 14.898465 -10.334880 30.855791 -1.236063 4.848344 5.838761 -12.480222 
-0.282899 -1.998849 1.041560 -176.500238 1.817288 100.594272 2.860258 1.117650 -12.572831 -3.923693 1.697973 0.360715 2.730019 9.314735 -10.146301 0.000000 -0.000000 0.000000 1.431347 -0.128442 -19.512065 0.434868 -5.206543 10.957111 0.679419 -7.613806 -13.346012 0.000000 -0.000000 0.000000 1.790559 -1.153867 16.453452 0.727362 -2.046555 0.860947 0.713545 -2.130988 2.369163 1.698153 2.703884 -3.802898 3.327080 -0.626915 4.147659 -29.277678 -0.669355 4.788321 -56.372990 -6.127665 11.295189 11.773200 -30.813640 -3.719793 3.208754 -5.852752 -12.921114 26.107561 4.038271 5.274423 53.708112 3.884934 15.020770 -10.282682 31.412743 -1.411048 4.827816 6.087210 -12.409748 
-0.282318 -2.003389 1.041072 -177.310059 1.687875 102.079964 2.739628 1.509639 -13.807729 -4.152553 2.238154 -0.776136 2.728447 9.237084 -9.120659 0.000000 -0.000000 0.000000 1.216469 0.159121 -21.108320 0.454862 -5.205976 10.234518 0.815231 -7.060810 -12.529705 0.000000 -0.000000 0.000000 1.144177 -0.689783 17.991611 0.646407 -1.756287 0.856812 1.116194 -2.023266 2.171378 1.404883 2.871674 -3.739231 3.615689 -0.457125 2.691146 -29.266817 -0.933126 4.749703 -56.122270 -5.821777 11.487539 11.931719 -31.672898 -3.917548 3.345331 -5.815648 -13.039376 26.215636 4.523545 5.365721 53.328665 4.196080 14.953697 -10.710589 31.997361 -2.187058 4.677268 6.039723 -12.564220 
-0.282482 -2.011226 1.039432 -177.239661 1.700619 104.348487 2.694281 1.584112 -16.878500 -4.206316 3.048768 -0.668057 2.678239 8.673612 -8.293491 0.000000 -0.000000 0.000000 1.148909 0.174622 -23.908467 0.462677 -5.672354 9.833620 0.974022 -6.797782 -11.591696 0.000000 -0.000000 0.000000 1.081740 -0.671990 19.899286 0.652454 -1.681928 0.355931 1.340058 -2.047104 2.252227 1.183432 3.017650 -4.251477 3.707983 -0.306090 1.419594 -29.216960 -1.070914 4.562094 -55.935014 -5.858649 11.646913 12.007186 -32.508205 -4.079390 3.372687 -5.849513 -13.292114 26.176854 4.872508 5.127523 53.017199 4.874031 14.995771 -11.385338 32.717452 -3.457096 4.428626 6.051092 -12.926566 
-0.282435 -2.015840 1.038096 -177.250579 1.700140 105.647493 2.793888 1.383547 -18.733127 -4.281389 3.666308 -0.440308 2.628867 8.487113 -7.832232 0.000000 -0.000000 0.000000 1.119091 0.222966 -25.671254 0.422515 -5.962854 9.845635 1.048036 -6.660913 -11.125423 0.000000 -0.000000 0.000000 1.017961 -0.608792 21.068859 0.662959 -1.637139 0.126481 1.448224 -2.063101 2.257022 1.067543 3.111731 -4.608799 3.827667 -0.314324 0.712911 -29.194499 -1.193758 4.473000 -55.813956 -5.941966 11.714988 12.053653 -32.794052 -4.524010 3.580433 -5.891766 -13.684238 26.176599 5.066883 5.029854 52.874879 5.324805 15.032177 -11.904362 33.241055 -4.385650 4.127640 6.082546 -13.185606 
-0.282346 -2.021520 1.036168 -177.190395 1.618253 107.347672 2.882787 1.038540 -21.011189 -4.357294 4.210126 -0.383379 2.598056 8.381327 -7.105897 0.000000 -0.000000 0.000000 0.930574 0.336870 -27.952873 0.387674 -6.268138 9.904850 1.135630 -6.549878 -10.618082 0.000000 -0.000000 0.000000 0.884441 -0.622205 22.682667 0.627859 -1.632373 -0.418330 1.574350 -2.047820 2.267664 0.937027 3.148019 -4.912601 4.120186 -0.334261 -0.158032 -29.157081 -1.411537 4.400852 -55.617116 -5.994635 11.772294 12.006360 -32.847494 -5.248443 4.007494 -5.860444 -14.220689 26.169855 5.297955 4.983339 52.815139 5.778213 15.091343 -12.614781 34.080539 -5.615954 3.591278 6.139754 -13.505891 
-0.282173 -2.026606 1.034269 -177.044876 1.569645 108.972291 2.927301 0.873598 -22.995459 -4.397612 4.407958 -0.647506 2.633841 8.324631 -6.399422 0.000000 -0.000000 0.000000 0.737095 0.520870 -30.056408 0.359448 -6.539073 9.917430 1.189895 -6.541581 -10.136635 0.000000 -0.000000 0.000000 0.802016 -0.687336 24.211909 0.598196 -1.641723 -0.972489 1.680824 -2.086697 2.287243 0.894921 3.194520 -5.183400 4.391589 -0.262878 -0.948382 -29.203574 -1.634483 4.326478 -55.343074 -5.989349 11.776029 11.907875 -32.776115 -5.703452 4.385875 -5.761572 -14.345513 26.126718 5.466114 4.888147 52.861813 6.086963 15.192853 -13.256981 35.054797 -6.591394 3.095992 6.200189 -13.792284 
